<?xml version="1.0" encoding="UTF-8"?>
<svg width="20px" height="18px" viewBox="0 0 20 18" version="1.1" xmlns="http://www.w3.org/2000/svg" xmlns:xlink="http://www.w3.org/1999/xlink">
    <!-- Generator: sketchtool 56.3 (101010) - https://sketch.com -->
    <title>030160EB-2EE5-4A5B-BD33-F217BBAF3348</title>
    <desc>Created with sketchtool.</desc>
    <defs>
        <polygon id="path-1" points="0 0.0002 20 0.0002 20 18 0 18"></polygon>
    </defs>
    <g id="Page-1" stroke="none" stroke-width="1" fill="none" fill-rule="evenodd" opacity="0.539999962">
        <g id="MNP:-Title" transform="translate(-18.000000, -586.000000)">
            <g id="ic/photo/" transform="translate(16.000000, 583.000000)">
                <g id="Group-6" transform="translate(2.000000, 3.000000)">
                    <g id="Group-3">
                        <mask id="mask-2" fill="white">
                            <use xlink:href="#path-1"></use>
                        </mask>
                        <g id="Clip-2"></g>
                        <path d="M19,15.0042 C19,16.1052 18.105,17.0002 17.006,17.0002 L2.994,17.0002 C1.895,17.0002 1,16.1052 1,15.0042 L1,5.5542 C1,4.4532 1.9,3.5582 3.006,3.5582 L3.965,3.5582 C4.786,3.5582 5.824,3.1092 6.38,2.5142 L7.731,1.0652 C7.762,1.0402 7.846,1.0042 7.868,1.0002 L12.135,1.0002 C12.176,1.0082 12.25,1.0412 12.263,1.0482 L13.627,2.5132 C14.19,3.1192 15.205,3.5582 16.04,3.5582 L16.998,3.5582 C18.102,3.5582 19,4.4532 19,5.5542 L19,15.0042 Z M16.998,2.5582 L16.04,2.5582 C15.477,2.5582 14.732,2.2332 14.359,1.8322 L12.994,0.3662 C12.809,0.1682 12.43,0.0002 12.153,0.0002 L7.868,0.0002 C7.584,0.0002 7.206,0.1642 7.017,0.3662 L5.649,1.8322 C5.283,2.2242 4.521,2.5582 3.965,2.5582 L3.006,2.5582 C1.345,2.5582 0,3.9002 0,5.5542 L0,15.0042 C0,16.6562 1.341,18.0002 2.994,18.0002 L17.006,18.0002 C18.656,18.0002 20,16.6582 20,15.0042 L20,5.5542 C20,3.9012 18.656,2.5582 16.998,2.5582 L16.998,2.5582 Z" id="Fill-1" fill="#020303" mask="url(#mask-2)"></path>
                    </g>
                    <path d="M10,12.0613 C9.407,12.0613 8.87,11.8133 8.481,11.4143 C8.093,11.0133 7.852,10.4603 7.852,9.8503 C7.852,8.6293 8.814,7.6393 10,7.6393 C10.593,7.6393 11.13,7.8873 11.519,8.2873 C11.907,8.6863 12.147,9.2393 12.147,9.8503 C12.147,11.0713 11.187,12.0613 10,12.0613 M10,6.6393 C8.264,6.6393 6.852,8.0803 6.852,9.8503 C6.852,10.7033 7.176,11.5063 7.764,12.1093 C8.36,12.7243 9.154,13.0613 10,13.0613 C11.735,13.0613 13.147,11.6213 13.147,9.8503 C13.147,8.9983 12.824,8.1953 12.235,7.5903 C11.641,6.9773 10.846,6.6393 10,6.6393" id="Fill-4" fill="#020303"></path>
                </g>
            </g>
        </g>
    </g>
</svg>