<?xml version="1.0" encoding="UTF-8"?>
<svg width="22px" height="16px" viewBox="0 0 22 16" version="1.1" xmlns="http://www.w3.org/2000/svg" xmlns:xlink="http://www.w3.org/1999/xlink">
    <!-- Generator: sketchtool 56.3 (101010) - https://sketch.com -->
    <title>387C5307-6531-4871-9E40-4AC12F36279C</title>
    <desc>Created with sketchtool.</desc>
    <g id="Page-1" stroke="#000000" stroke-width="0.1" fill="none" fill-rule="evenodd" opacity="0.539999962">
        <g id="MNP:-Title" transform="translate(-61.000000, -587.000000)" fill="#000000" fill-rule="nonzero">
            <g id="ic/video/" transform="translate(60.000000, 583.000000)">
                <path d="M17.5,8.72727273 L21.7605739,6.40332331 C22.0029981,6.27109194 22.3067164,6.36042086 22.4389478,6.60284503 C22.4790083,6.67628933 22.5,6.7586116 22.5,6.84227109 L22.5,17.1577289 C22.5,17.4338713 22.2761424,17.6577289 22,17.6577289 C21.9163405,17.6577289 21.8340182,17.6367372 21.7605739,17.5966767 L17.5,15.2727273 L17.5,16.9905224 C17.5,18.652611 16.1633689,20 14.4905224,20 L4.50947762,20 C2.84738902,20 1.5,18.6633689 1.5,16.9905224 L1.5,7.00947762 C1.5,5.34738902 2.83800753,4 4.49208836,4 L5.80502088,4 C6.35583215,4 7.24698965,4 7.79894859,4 L12.2747016,4 C12.8251062,4 13.7238426,4 14.2734408,4 L14.4944133,4 C16.154353,4 17.5,5.33663106 17.5,7.00947762 L17.5,8.72727273 Z M17.5,9.86636037 L17.5,14.1336396 L21.5,16.3154578 L21.5,7.68454219 L17.5,9.86636037 Z M16.5,9.27272727 L16.5,7.00947762 C16.5,5.8928953 15.6060518,5 14.4944133,5 L14.2734408,5 L12.2747016,5 L7.79894861,5 C6.8014109,5 6.8014109,5 5.80502086,5 L4.49208834,5 C3.39222792,5 2.5,5.89774412 2.5,7.00947762 L2.5,16.9905224 C2.5,18.1068145 3.3953964,19 4.50947762,19 L14.4905224,19 C15.6068145,19 16.5,18.1046036 16.5,16.9905224 L16.5,14.7272727 L16.5,9.27272727 Z" id="Combined-Shape"></path>
            </g>
        </g>
    </g>
</svg>